<svg xmlns="http://www.w3.org/2000/svg" x="0" y="0" viewBox="0 0 154 52" style="enable-background:new 0 0 154 52" xml:space="preserve"><style>.st0{stroke:#db573b;stroke-width:.8689}.st0,.st1{fill:#db573b}</style><path class="st0" d="M12.7 31.3c-.1-.2-.2-.3-.3-.5-1.1-1.6-2.1-3.2-2.1-4.9 0-1.7 1-3.3 2.1-4.9.2-.3.4-.6.6-.8.5-.7.8-1.6 1-2.5.3-1.5 0-3.1-.8-4.5-2-3.1-6-4.2-9.2-2.4-1.2.7-2.2 1.8-2.7 3-.4.8-.6 1.8-.6 2.8 0 1.3.4 2.6 1.1 3.6.2.3.4.6.6.8 1.1 1.6 2.1 3.2 2.1 4.9 0 1.6-.9 3.1-2 4.7-.5.4-.8.8-1 1.3-1.2 2.2-1.1 4.7 0 6.7S4.8 42 7.3 42c3.7 0 6.7-3 6.7-6.7 0-1.2-.3-2.4-.9-3.4-.2-.2-.3-.4-.4-.6zm-7-17.2c1.5-.9 3.4-.3 4.2 1.1.9 1.5.3 3.4-1.1 4.2-1.5.9-3.4.3-4.2-1.1-.9-1.5-.4-3.4 1.1-4.2zM9 37.9c-1.5.9-3.4.3-4.2-1.1-.9-1.5-.3-3.4 1.1-4.2 1.5-.9 3.4-.3 4.2 1.1.8 1.5.3 3.4-1.1 4.2zM45 31.2c-.1-.1-.2-.3-.3-.4-1.1-1.6-2.1-3.2-2.1-4.9 0-1.6.9-3.1 2-4.7.3-.4.7-.8.9-1.2 1.2-2.2 1.1-4.7 0-6.7s-3.3-3.4-5.8-3.4c-.5 0-1 .1-1.5.2-1.9.1-3.6.2-5-.6-1.5-.9-2.3-2.5-3.2-4.3-.1-.1-.1-.3-.2-.4-.1-.3-.2-.5-.4-.8-1.8-3.2-5.9-4.3-9.1-2.4-.5.3-.9.6-1.3 1s-.8.9-1.1 1.4c-1.8 3.2-.7 7.3 2.4 9.1 1.2.7 2.4.9 3.7.9.3 0 .7 0 1-.1 2-.1 3.8-.2 5.3.6 1.5.9 2.3 2.5 3.2 4.3.1.2.2.3.2.5l.3.6c.1.2.2.4.4.6.1.2.2.3.3.5 1.1 1.6 2.1 3.2 2.1 4.9 0 1.7-1 3.3-2.1 4.9-.2.3-.4.6-.6.8-.2.3-.4.7-.5 1-.1.1-.1.3-.2.4-.9 1.8-1.7 3.4-3.2 4.3-1.5.9-3.3.8-5.3.6-.3 0-.5 0-.8-.1-2.5-.2-5 1-6.3 3.3-1.8 3.2-.7 7.3 2.4 9.1.8.5 1.7.8 2.6.9 1.4.1 2.8-.1 4.1-.9 1.2-.7 2-1.6 2.6-2.7.2-.3.3-.6.5-.9.9-1.8 1.7-3.4 3.2-4.3 1.5-.9 3.3-.8 5.3-.6H39.8c.6 0 1.2-.1 1.8-.2.5-.1 1.1-.4 1.6-.7 3.2-1.8 4.3-5.9 2.4-9.1-.3 0-.5-.3-.6-.5zM25.3 9.9c-1.5.9-3.4.3-4.2-1.1-.9-1.5-.3-3.4 1.1-4.2 1.5-.9 3.4-.3 4.2 1.1.9 1.4.4 3.3-1.1 4.2zm-.4 37.4c-1.5.9-3.4.3-4.2-1.1-.9-1.5-.3-3.4 1.1-4.2s3.4-.3 4.2 1.1c.8 1.5.3 3.4-1.1 4.2zm13.2-33.4c1.5-.9 3.4-.3 4.2 1.1.9 1.5.3 3.4-1.1 4.2-1.5.9-3.4.3-4.2-1.1-.9-1.4-.4-3.3 1.1-4.2zm3.3 23.9c-1.5.9-3.4.3-4.2-1.1-.9-1.5-.3-3.4 1.1-4.2 1.5-.9 3.4-.3 4.2 1.1.9 1.4.4 3.3-1.1 4.2z"></path><path class="st1" d="M64.9 33.3c-1.6 0-3-.3-4.2-1-1.2-.7-2.1-1.7-2.7-2.9-.6-1.2-.9-2.6-.9-4.2s.3-3 .9-4.3c.6-1.2 1.5-2.2 2.7-2.9 1.2-.7 2.5-1 4.1-1 1.4 0 2.6.3 3.6.8s1.9 1.2 2.5 2.1c.6.9.9 2 1 3.2h-4.1c-.1-.8-.4-1.4-.9-1.9s-1.1-.7-1.9-.7c-.7 0-1.3.2-1.8.6-.5.4-.9.9-1.2 1.6-.3.7-.4 1.5-.4 2.5s.1 1.9.4 2.6c.3.7.7 1.2 1.2 1.6.5.4 1.1.6 1.8.6.5 0 1-.1 1.3-.3.4-.2.7-.5 1-.9.3-.4.4-.9.5-1.4H72c-.1 1.2-.4 2.3-1 3.2-.6.9-1.4 1.6-2.4 2.1-1.1.4-2.3.6-3.7.6zM79.2 23.9V33h-4.4V11.9H79V20h.2c.4-.9.9-1.7 1.7-2.2.8-.5 1.8-.8 3-.8 1.1 0 2.1.2 2.9.7.8.5 1.5 1.2 1.9 2 .5.9.7 1.9.7 3.2V33H85v-9.3c0-1-.2-1.7-.7-2.3-.5-.5-1.2-.8-2.1-.8-.6 0-1.1.1-1.6.4-.5.3-.8.6-1.1 1.1-.2.5-.3 1.1-.3 1.8zM97.4 33.3c-1 0-1.9-.2-2.7-.5-.8-.4-1.4-.9-1.9-1.6-.5-.7-.7-1.6-.7-2.6 0-.9.2-1.6.5-2.2.3-.6.8-1.1 1.3-1.4.6-.4 1.2-.6 1.9-.8.7-.2 1.5-.3 2.2-.4.9-.1 1.7-.2 2.2-.3.6-.1 1-.2 1.2-.4.3-.2.4-.4.4-.8v-.1c0-.7-.2-1.2-.6-1.5-.4-.4-1-.5-1.7-.5-.8 0-1.4.2-1.9.5s-.8.8-.9 1.3l-4.1-.3c.2-1 .6-1.8 1.2-2.5s1.4-1.2 2.3-1.6c1-.4 2.1-.6 3.3-.6.9 0 1.7.1 2.5.3.8.2 1.5.5 2.2 1 .6.4 1.1 1 1.5 1.7.4.7.5 1.5.5 2.4V33h-4.2v-2.2h.1c-.3.5-.6.9-1 1.3s-.9.7-1.5.9c-.6.2-1.3.3-2.1.3zm1.2-3c.6 0 1.2-.1 1.7-.4.5-.3.9-.6 1.2-1.1.3-.4.4-.9.4-1.5v-1.7c-.1.1-.3.2-.6.2-.2.1-.5.1-.8.2-.3.1-.6.1-.9.2-.3 0-.6.1-.8.1-.5.1-1 .2-1.3.4-.4.2-.7.4-.9.7-.2.3-.3.6-.3 1 0 .6.2 1.1.6 1.4.5.3 1.1.5 1.7.5zM118.1 17.2v3.3h-9.5v-3.3h9.5zm-7.4-3.8h4.4v14.7c0 .4.1.7.2.9.1.2.3.4.5.5.2.1.5.1.8.1.2 0 .4 0 .6-.1.2 0 .4-.1.5-.1l.7 3.3c-.2.1-.5.1-.9.2s-.9.2-1.5.2c-1.1 0-2-.1-2.8-.4-.8-.3-1.4-.8-1.8-1.5-.4-.7-.7-1.5-.6-2.6V13.4zM135.7 17.2 130.2 33h-4.9l-5.5-15.8h4.6l3.3 11.3h.2l3.3-11.3h4.5zM145.7 33.3c-1.5 0-2.9-.3-4.1-.8-1.2-.5-2.1-1.3-2.8-2.2-.7-.9-1-2-1.1-3.3h4.5c0 .5.2 1 .5 1.4.3.4.7.7 1.3.9.5.2 1.1.3 1.8.3s1.3-.1 1.8-.4c.5-.2.9-.6 1.2-1 .3-.4.4-.9.4-1.5s-.2-1.1-.5-1.5c-.3-.4-.8-.8-1.3-1-.6-.2-1.3-.4-2.1-.4h-2v-3.3h2c.7 0 1.3-.1 1.8-.4.5-.2.9-.6 1.2-1 .3-.4.4-.9.4-1.5 0-.5-.1-1-.4-1.4-.2-.4-.6-.7-1.1-.9-.4-.2-1-.3-1.6-.3-.6 0-1.2.1-1.7.3-.5.2-.9.5-1.2.9-.3.4-.5.9-.5 1.4h-4.3c0-1.2.4-2.3 1-3.2.7-.9 1.6-1.7 2.7-2.2 1.1-.5 2.4-.8 3.9-.8s2.7.3 3.8.8c1.1.5 1.9 1.2 2.5 2.1.6.9.9 1.9.9 3 0 1.2-.4 2.2-1.1 3-.7.8-1.7 1.3-2.9 1.5v.2c1.6.2 2.7.7 3.5 1.6.8.9 1.2 2 1.2 3.3 0 1.2-.3 2.3-1 3.2-.7.9-1.7 1.7-2.9 2.2s-2.2 1-3.8 1z"></path></svg>